/* XPM */
static char * lena_xpm[] = {
"128 128 44 1",
" 	c None",
".	c #CC9966",
"+	c #663333",
"@	c #996666",
"#	c #CC6666",
"$	c #CC9999",
"%	c #FFCC99",
"&	c #996633",
"*	c #FF9966",
"=	c #663366",
"-	c #FFCCCC",
";	c #CCCC99",
">	c #FF9999",
",	c #993333",
"'	c #333333",
")	c #CCCCCC",
"!	c #996699",
"~	c #CC6633",
"{	c #666666",
"]	c #999999",
"^	c #666699",
"/	c #330000",
"(	c #663300",
"_	c #330033",
":	c #999966",
"<	c #FFFFCC",
"[	c #333366",
"}	c #660033",
"|	c #CC99CC",
"1	c #9999CC",
"2	c #660000",
"3	c #FFFFFF",
"4	c #CCCC66",
"5	c #FFCC66",
"6	c #666633",
"7	c #993366",
"8	c #FFFF99",
"9	c #993300",
"0	c #333300",
"a	c #FF99CC",
"b	c #CCCCFF",
"c	c #CC9933",
"d	c #CC6699",
"e	c #000000",
".....*...*.%*..#&@#&@&#&#&#.&#.#.#.#.#.#..#.*.#...#..#.#.#.#..#..#..#..#..#.#.#@#.>..>...*..*...*....%%%%.&&.@.#.@.#..&#.~.#&#$.",
">%*..*.*..*%.*.&#@&#@#&#&#&#*&.#.#.#.#.*#..#&.~.#.#.#.&.#.#.#.#.#.#&.#..#&.@.@&#&#.>.*.*...*..*..*...%%%%%&&~@#&#.@&##.&#.#.@.>@",
"...>...*.*.>.%*&#,&#&#&@&#.&#.#.#.#.~.#.#.~.>.#.#..~.#*.~.&*.#.*&*.#..#&.#.##.#@&#.$.>.>.*..*..*.....%%;%%@&@.#.@.#..&#..&#.#@+(",
".*...*...%*.*.>&&@@#@&##&#.#&#.~.#.#.#.#.##.#&*.~.#..#.#.#.#.#.#.#.#~.#.#.#&.#&@#&#.>.....*..*..*.*...%%%%%&.&@.#&#.#.#.#$.$&+++",
"..>.*.*.*.%.>.~&#&#&#.@&#&#&.#.#.#..#.~.~.*.~>&>.#.#*.#.#.~.~.#.#.~.#.*&*.#.#.#.#&#..>.>*..>..*.......%%<%%$&#.#&$&#.&#.&>@,++2+",
".*.%...%*.*..*.#&@#@&##&#&#&#&#.&.#*.#.#.#.#*.~*#.~.#~.~*#.#*#.*.#.#.#.#&.#.#.#&@.##.*..%*..*..*>.*.....%%%%&&&.#~.#.#.#.$&+++++",
"..>.*.*.%*.*..*#&,&#@&#&#&#.#.~#.~.&>.~.~#*&#~#.~>#.~$~$&.~..#.#~.~.~.#.#.#.#&$#&#&$.>.>..%*.>....*.....%%%-.@#&.#&#.#.$$,++++++",
"..*.*%.*%.*.>..#&@#&##&#&#&#&.#.#.#.~.#.*.#.*.~.~.#.#.~.##&#.~.#.##.#*&*~.#.#&#.@#&>.>%.*>.%..*.>..*.*..%%%%%&&&.#.&#&#.@++++'=+",
".*...*.*.*.*.*.~#@&#@&#&#&.#~.#&*&*&#.~#.~*#~#.#*#.~.#&>..#.#.#...#.#.#.#.#..#.#&#.#..>...*.*..%*..>...>.%<%-%@.&#.#.$@@++++++=+",
".%.*%.%*.%.*.*.&&,&#&#@&#&#.#&.#&*#.~.*.#..#.*~.#.##..#&..&*&#.##.~.#~.#~.#~#.#.@#@.#..>.>..*.*..>.*.*....%%%%.&&#.#&$,++++=+='+",
"*>.*.*..**..*>.#,@#@#&#&##&#&#*&>&*#.#~.#~.#.#.#*#.&#&.#@#.@..#..@.#..#.#~..#.#&#&#.>.>...*.$..*.*...*.*.>%%%-%&&@&$#@++/++'++=+",
"..%*.%*...*.*.*&,&#&@#&#&&#.#.#.#&.~#.#.#.~.#.#..#$#$.$...$&@.@.#.@.##.#.##.##.#.@#.#..*.>.%*.>...>.#.#....%%<-.&#.@&+++=+=+=+=+",
"*.*.*.*.*%*.*.*&#,@#&##&##&~#&*&*#*&*&*&*@.#.~.#$..$.$.-$%$-%$.@.@.&..#*#.#*&#&##&#.#.>...*....*>.*.*.*.~..%%%%%@@.@++++++=+=++=",
"%..%*..*.*.*..*&&&,@#&##&#.#.#.#.#.#.#.#.#.#.#..@>@.$$$;$%$.$-$%$.#@.#..#.##.##.#@&#$.>.>.>.*>.....*.~.*....%<%<.$+++/+=+=++=/++",
"*.*..~.~.%*.*.*#    #&,&#&#&#~.#~.~#.#*&*#..@.#.$.$$.$.$;$;$%$%$-.$.&@#.#~.##.#&##.#.#....*...*.>*.#..#.~....<%%-&+++++'=+[++=++",
".%*.*.&*.*%*.*.      @#&#&#.#&#.##.~.#.#..>.#.$&#$@.$$:$$;$;$;$;-;-$.@&#$#.#&###&@.#..#.>..>.>..~..*#*.*.~...%%<-@+++=++=++=++=+",
"*.%*&,&*.*.*.*        @#&##&#.~&*&>~.#.>@#&.@#.@$.@$.$.$.$;$;%-;.)%-%$&@.##.#.@.##&#.>.*.#.#.*&*.*.*.#.#..*...-%-+++/+{++_++=+}+",
"*.>.~&~..%*.*.        &#&#&#&#.##&.#~#&*&##.@.#&$#.@.$.$;$.%).;-;$;$)%$&@&@#.##,@@.#..>.>..>.>.~.*.#.#>.>.#.*.-$+/+=+=+=++=+=+_+",
".*.&#(#.**.%*.        @#&#&##.#&*#.#..##.#&#@.$.$@>$$.$.$%]%;$;;-;)%)%--&@&@&#&#&##.#..*.#.#..>..~.*..#.*...#..++='+++=++=+'+++@",
"%.#&~&~..*c*.*        #@&#&#&#.#&*&#*#.&#.#.#@##.&.@.$$.$%$$;$%]%)$;$;-<-%@&@$&##@&#.>.>.#.#&#.*.*.*.>*.~.*..>++++=+=++'=+++=++$",
"*.~&,&#.*%.*.*.      &#@#&#.#&#.#.#.#&#&#&@.#..@$#.#.@.$.]%;-;-;$;$;-;)--<$@#&,@&##.*.*.>.#&#&$..*.#.*.#.*$.$&++/+++='=+}+=++@$$",
".#@&,&#.*.*%*.*&    @&#&#@&#.#.#.~&*.#&#.##&@@.#.@.#.$.$.$.$%$;$)-3))-;;-;-&@@@#@#&#.>.*.#.@(,$#...*#.**.*..@++++!'+}+=+=+@+@@$.",
".&,&#&&>.*..*.#&#@,&#@&#&#&#&#&#.#.##&#&#.#.#&$.#.$.@.$.$$-$;$$%)%-;-;3;)<-)&@&@&,#.~.*>.>#&,+.@**.*.~>.#.>.+++'+++=+=+=++@@@.$.",
"&#&#&,#..*%*.*.,&,@@#@#&##&#.#&#&#.&~#.##&#&#.#$.#.>.#.$.;.$$;-;-)-);)-)<)%3-++@@&@#.*.*..>@,+@@..#*.*~**.>+++_+='++=+=+=++@.$..",
"&,@,&@&>.*.%.>.#&+&#&@&#&#&#&#.#.#.#&#~.#.#.$&#.#..#.$.$.$$.-;--)%)););););-<-&+,@~@*.**>.#&+2+@>*.*#.*.#>&2+++=++=++_+++@@$$...",
"&#&@,#&>.%**.*.&,@,&@#&@@#&#.#&#.~#.#&#&#&#&#.@.#.$.@.@.$.$;-$-;-;-)-;-);-);-)-$+@&#.*..*.>@++++@.#.**.>*$,+/=+=++'=+'+=+@$$.$..",
"@,#&@&#.*..%.>.#&@@,@##&#&##&#.#.#&#&#&#.##.#.$.$.#..#.@$.--;%)$-)%));)<))<)-<)%@+@.#.**.>.#++++#@.>&#.>.@++++=+'+++=+++@$.@..-.",
"@&@,&,&>..**.*.#&,&#&@&@#&#&#.#&>&#&#.#&#.#.#.#.#.>@.@.$%).-$;-;$-;-%)-)%)-;)%)-$+@&.*..*.#@+++++.@...$.#++}=+=+=+=+++++$$$.$...",
",#@,@&#..*...>&#@+&@,@#&#&#.#&#&%#&.#&##.#.#.#.#...#&$.-.-;$;$-;)-))-;-;-;)-;3;3-@@&$.*.*.>&++++/@.-%%$$+++++++=+'+=+++$.$..$.$.",
"@,&#@,&#%.%*.*.&,@,&#&#&#&#&#.#.>&#&#.#&#&#.#.@.#@@..$%$%$.-;$;-;-;-;--)--;)-;);-$(#..*.>.>@++/++--;-<<)/'+[+=+++=++'+@$&$.$%.$.",
"@,@&,&..*.*%..>&,&@@,@#@#&#&#&#%>&#&#.#.#.#.#.#..&@.$%$%]%).-;$;-;$)%$;-%)-;))<)3-@@...*..#@++=@-)%)%)-<{+[++{+=+='}+@:$.$..$.>.",
"@&#@#,&#.%.*.*.&,@,@&&#&@#&#.#&%>&#&#&#&#.#.#.@>&#.$%$.-.$;$;-;$;$;-)--)-;-)%);)))%@..*.*..@++]-]$<);<)-]'='=++++=@++$.$..$..$.$",
"#&,&#&#.**%.%*#&,&&##&#&#&##&&#%.#&#&#&>&#&.#..#&-*$.$.-$-.)$.-$;$-.;-;.-)%;);-;-)).$...*>&&+$)$))--;)%)$+'+=+=++'}'$$$.$.%$....",
"#&@#,~&*...*..*&@,@&&#&##&#.#&.%*&#&#.#.#.#.&#.&.>%.$.$.;-$%$).-$;-$;--);$);-);)-))-$.>..~@.%;;-;));-;3-{+'+++=+=++@@$$..$...$$.",
"@&#&##&*.*5.%*.#,&@,&#&#&##&#&>%#&#~@#&#@.##.@.>..#.$%$-$.).$;$;%$;-.;-%)%$;-;-;);-;%$....%--$3)-;-));-)++=+[+/++/+@$.$$..$%>..>",
"~@#&,&#*.%*.*.*&@,&#&#&#&#&#@&%.#&#&~.#&#.&#.#..>.$.%$.%$.-;$.$$%$.-;$.$;$;$;-;-)$)-%$.$-%-;%;-;-)-;-3%)'+'++=+=++@$$$.%$..$..$.",
"@&###&#.*.5.%.>&,@@&#&#,&#@~&#%..~#&#&#&#$&#..>..#.>$.$.$%$.-;%.-.$%$%)%$;-)%$);%).]%-%%$.-;-);-)%)%;-3-+'=+_++++@$$.$.$..$.>..$",
"~@&#~#&*..%**.*.,(#,&#&##&#&#&%.>.*&#&#.#.#.#.#..#...$.-.$.$..$.%;$.%$.-;$%)$;$$;$;-;$)%-;-$%)-;-;-)-;-]++'+'=+++@.$$.$.>...$.>.",
"#&#&,&#.*..%.*.#@@&@&#&#&##&#&-%..#.#&#&#.#.$..#.$.>.$.$.-;%$%.-..$;.).$%$-.-$;$;$;$;$;-);-;)-;-)%$%)%-{+_=+=+'+@$$..$.%$.>..$.$",
",@&##,~*.5*%*.*&,@,##&,&#&#@&~%.**.~&#&#&#.#.#..>.$.$%$.$.$.$.$.$%$.$%$%$;$:-$-.$%$;-;-;$)-)%)-;-$:$.)-+'+'=+++@@.$.$.$...$.>.>.",
"&#,&#&#.*..%.*.#,&@&#&#&#&#&#&%..*&*#&#&>$.#$.#..$.#.$.-$.-.-..-..$%$.-$;-$$%]$;-;%)%))););$)%)%-.$@;$$++=++=++@$.$.$..$%.$..$.$",
"@&#&#&#..*.*.*.&@,@#&#&,#&#&&#%.*.*.&#.#.#.#&$.#.>.$.$.$.$$.$$$.$$$%$$%$.$;$$.$$;$%$;)%)-);-;-;-.).$$-'+'+='+'@@.$..-.>.$...$...",
"&#@,#~#*.%5%.%*#+,&@,#&#&##&#.%*.*.*~&#.>@#.>..#&$.#$$$$$.$$@@$$$.$$$$:$$-.$;-;-%;)%)$;);-)-;--$;@.@;-++=+=+++@$.$.$..$..>$..$>.",
",&#&#&&*.*.*.*.~@@,&#&#&#&#&,.%%..*..#.#.#.#.>.#.$#..$&@@@@@$$@$-$$]-$$+.{$%-$;-%$;-;-;-)-;--;-.$@:@-$/++_+=++@$.$..$.$.$..$..$.",
"@&#,##~.*.%.%*>&,@@,&#,&#&#&,.*.*.**.&#.#$#$.#.@*@.$>@$$@@@+$)@!]+@@@++{+$;$:-%]%)%$;-);;--;-%$@&+@%-+'+=++++@$$.$.>.%.$.$..$..$",
"&#&&#&#*..5*..*&,@,@&#&#,#&#&&%%%*.*.#.#&#.#.$.#.$#.@$@@@{!@!@!+=$=@'+++@$$-$%-;)-;).)%-%)%$.@&@&$%)+++'+==++.$.$%$.$$.$.%$.$...",
"#&#@~#..*.*%%*.#@+#@#&#&&#&,&~%%5*.~.~&#.$#$&#..#.$#$@$@!@={=!!@[@[@=e+)$;-;);$%;$-;-);$<$&@6+@&]$-(++++=++++$$.$.$%.$..$....$..",
"&#&#&##*.%..*..~#+&#&,###&#&#(%%%...>&@#.#.#.#.@>.@#$@@+@+=+!{=!!=+!++)@-]%$%)%$;)$;$%)%@]&@&@.$.)+++'++=+=+@$.$%.$.$.-.$.$$..$.",
"@#&##&#.**%.%*.#&,@,@&#&,#&#&#.%5....#@>#$&#.$#.$$@$@=!==+=]!_+=@[+{+$$)%$);$;;-$-;---@@@@.:%.-$-++++=+=+++@$.#.$.%.$.$.$.$.$$.$",
"&&#&#~#...5*%*.&,@,@#@#&#&#&&,&%%%%..@.$.,.#@&$@,$@+}@='=/={+=]!_!/!$]%$;).-$;$;)-$;.@{@@$-$..%%+/'++=+'=++@$$.%..$.%..$%$.$.$.$",
"#&#&#&#**.*..**#@,&@,@#@#&##.#&%%%..#$##&#.&$.$$+@+!@=+!={=+={=@@_]$@-;$%$;$;$;$;-.$(+@${@:%.--+++++=+=++++@..$.$%.$.$%$.$.$.$$.",
"#&###&#.%.%*%...,@,#&#&,#&,&#&#&%%%.&..#$#.>@#@@@@=@=+=!+_'+=+='!!{@)$--;$;$;$%;$)%]&@@@$@$$%.(+++++'+_+=+@$.$%..$%.$..$.%$.$..$",
"#&@&#,&**.%.*%*&,@&@,#@&#&#&#&&9%%.>.#@..@.@.@@@@@@=_=+=@_+=@@!+!]@$).;$.-.$;$;-;-%-.@@@@@:-@++++++=@+'+++@@@.$.%$..$..$.$.$.$.$",
"#&##&###..*%.*.~@,+#@&###~#&#.#&.%%.&.,.#&#$@$@+=+@=+=^@[+++=++!@]@)$%).).)$.).-;$;%.+@@@$@.6+/++++++=+=+@$&$%..$.$.-.$..$..$...",
"&#&#&,&*.%.%*%*#&,@&#,@&@&#&#~&#&-%#.#&#&>.@@@}+=+={!==@!+'+'+@+$1$)$%$.$$.-;-%;-%-%$@++=@]$+/+=+{=+=/+++@$$.$.%.%..$.%$.%$..$.$",
"#&@##&#.*%*.....,@,@@&##,#&#&>&#&%%&#&.@.@>@@+!+='+==+![$!+++@@$]$-$;$;$%$.$;$%-;-%%%$++@+$]+++=+++++'+++$@$.$.$.$$%.$.$.$%.$...",
"&#&#&,&#..%.%*>&,@(##@#&#&#&#.#&#->.&#&>&@++!+=+=+=+[=+=@++/@$$$$]$).$..$;$-%-;%-%;%.$@+}{$$+'+=+={+=+++@@$.$..$...$..%.$.$..$.$",
"&#&##&#*.*%*...#&@,@&#@#&##.#~&#..-&#..#$@@++++^+==+^=@!'=/@$$$-$$$-;-.$.$%$%$%-%--%%#@+}@]$@++=++=+++++$@.$.$..$.$.$.$;..;.$...",
"@&#@#,&...%.%*.#&@,@#&#&#&#~$~#.##%#.@.$@++!_=@={+=+=='=+@{@.$;$)&$%$.$.-$%$%-;%)%%%-%@+++@${+={=++=+++@$$.$..:.$.$:$.$.$$.$.$$.",
"&@&#&,#*.*%*%*.&,@@&@#@##&#&#.&#&$@.@.#@+!++@'+=+'=+=+=@'@$:$.$%-:-$.$.%>%$-.-%%-;-%%>@@+/@$++=+={++'++@@$$.$%$.;..$..$..$.$:..$",
"#&#@#&@....%.%>&#(@#@&#&#&#&##*#@&#.#$@@+@_!_=+{=+={==+/+@@$.$;$$$..$%>.$>%$%-;.-%%)%-$+}+@)@++={+=++++$..$;$...$$..$:@.$:$.$$$.",
"@&#&#~##..*%.*.&@@,&#@#@##~#.&#.>++&$.@+=+=@=+=++++='+^+]@-;-..-%$@&&#.>%>-.$%-;-)%%%$#++++-@+@+=+[+++@$@.$..$;..$.$.$.@.$$.@.$$",
"&#@,@,&*.%..%%>~@(@@&#&#&@&##.*.#+2$@@@+!=^!'={+_+=@!@_+@:-.).;-.$.$.,(#.>$%$%%%$;-%.@@++++%@+=+{+=+++@$$.$....$;.$:.$.$.$.$$@.@",
"@&&#&#@#.*%.*..&#@,@#&#&#~#&#&>.$@(@@@+@++=!+=+'@/=/@+'$@)$%$.-&@$$$.$&,&#.>.$;%%$@@&@#@+++]$++=+=+'++.@.$%$.$..$%.$.$.$:$$$:$@$",
"##&#@9&..*%*%%*.,+#&#&#&#&@&>..>.$@++!=^!!/^+^+=1'+=++@:-.;-$%@@@+++++$.#.>.%%-;-$@+++@++++$@@++=+=++@$@.$.$..$..$$.$.$.$.$.@$:$",
"&#&#&#,>...%.*..&,@,&#&&#&#..$..$+@+=@!@^]=@=+'+_!'+0+$.$;-%-+(+,++@@2+#.#*>.%-;@+++++}+++{$@@+++'+++@..$.$.$..$...$.$.$.$$$$$@$",
"&,@,@(&.**%*.%*&,@,@&#,.,&#-.$.@$++^+^_=!@_'+==/^+_++@:.-.-%+@,++@++--(@~.#.>%%$++@@a+++=++$]@=+==+++.@$.$.$.$.$.>$.$.$$.@.:@@.@",
"#&#&#,,...*%.*..@,&##&#&#@+,$$$(+/@=+=!+^1+[+'+='=+'+@$$.%-&@&,&@+@@$-#@#&#..)%6@+@@$7++++@@$@@++=+++$..$.$.$..$..$.$.$.$.@.$:$.",
"@&#@,&@#.%.%*%.~#,&#&@.,+&@--%+++{!'=!=^+!+==+=+=+'+$..$;-&&$$@@&$.--%.$~#*.>%-@.$#$$,@+++!{$@@+=+'+@:$.$.$.$.$.$..$.$.@$:$.@..;",
"#@#&@,&#.*5.%*..&@#&##.+#$$$@++@@'}'={=!!!'/'=+'=+++@-$%-&@...*$#$@&@$-.#.#.$%;$.$.@,+@}++@@|{++++++@$.$.$..$....$.@.$.@.@.;.%%%",
"#&@,@,&#.*%*%.*.,,&#&#$#$$+@=+'+1$!==^={$1+=++=++/+$]$.-&&*#>.$.$.$.-.#.>.#*$-%-$.##@#@++++@$@+=+=+@.@...$.$.$.$.$.$.@.$.$.$%;.%",
",@#&,+,.>.%*%.*.&#&#.@&$@!+!+==@!{^'==!!!!{+='/='+@@$--#&#...>.>.$.$.$%#*#.*$%-.$.$.#$,@+++@$@@++++@$.-$..$.$.$....$.:@&$%%%%%.%",
"@&+@,&+...%.*%.#,#,@##$#$$|={={^{!+_=]={@$!+++=+++@$$%$&@.#*>.>%$%%$%$..>.#.>%--.*>##@@+}+{+|$+++++@....$..$...$.$.@.@.;%.;%.;5%",
"@,&,@+,#.*%*%.*.&,&#.$@$+=+='=!+!{[='==!^/@!'++/+@]$--(,#.~.*..>.>.%$%>.*#*#$%-%$...>##+++++$]+++++$@.$..$.$$.$.@:$...$.-%.%%.;%",
"@,@+,&+...*%*%.~#&,@@#$+!@^=!'!1'_+==+=+++]@+=+++$$$)++&#&>~>.>%%%$%..$.*.#..---..>.#$#+++++-$++++@.$...$...$.@...@.@.%;%%;%%%%%",
"@+@@,+,@>%..%*..,#&#&@@$!{=!==!{=='+[+{=++$@@'/+$&--@+/@~#*~.>.$>%.%>.>.>*#~$%%-.>.#.#@,++++$$++++@$.$..$.$.$.:$.$.:..%%.%;.;%;%",
",@(+,+&#..*%.%*&,@#@@$$+@!]={^@!{+=='_++++$@$@+/@$-)+/@@#.~**.>..>%$%..*#.~.#$-%...>$#++7+++1$++++@.$.%..$.@.$.@.$&$.;%%4%%%%;%%",
"+,@@+,+&>.%*.*..&@&#$$+!@^===!1]|'+=+}{@+@$$+++]@%$+++/&###~#..>...>.>..#*#..%--.>..>@,+++++$$++++$.$.$...$.$.:$.@...%.%.%4;%%;-",
"@@+,+,+..*.%*%*#,,@@@$@+!{={1{=$=/'+=+@+]@+@/'/$@%@'++@@~*~**>.$*>%..$*.~.#*@.-<..$#.@+++!+/$$@++@$....$...$.$.@.@.$%%454%%%;-%)",
",@+@,++#$%*%.%..,@.#@@@=@!==!=^][+='/=@$@.++++$@:$+/+/@+@#*#*.*$..>.>..##*.#..--...>@,}++@+/$$$+(@@$.$..$.$.$.$.$@..%%%%4%;%;%)%",
"@,@++(,....*%*..#,@@@$+@!{=@^+!!{|+={++=+@+/+@;$-@+'++@,#&*#.#.>*>.%>*#.*#.#.$%-.>.@$+++=++++$$/+.$.$.$..$.$:$...@.%%.4%%%;%%;%;",
",@,@,@+.>.%..%*&&&,@@@@!@=_!='!!]1+={}'+!++++$-$]+/+++@@&#*~*>.>.>.>.$*.#&#&#&>.*..#@+=++++++$$+&$..$.$.$.$.@.$.$..;%%%4;%%;%-%%",
"@,@,+&@...%*%*.>#+#@$@+!+=]=!=]!|!'+!@/++/@@@$6-++=+/+#@~#.#*~>*.#*.*.>.*..#.$%$.>$@+}+=@++++-@+@.$.>.$..@..$:@.@..%%4%%%;%;%;;%",
"@+@@+,@.$*.%.%..&+&#@$+{!@=_{=!!{!!'@^++!@$$@@$+'+++++#@$~#*#.#.>.>>.>.#.>.%%-%$..#@++++!+@+($$@#.$.$..$.$.$..$..$.%%%;%;%%;-;-;",
",@,+@+#..%.*%*.##,@@$@!+!{==={={=1@={@/+]$$$@@@+++=@++@&#.~*~**.#...*..>..>-.%>.>$.++=++@+++/$.@...$.$..$..@.$.@..%%.%5%;%;-%<%;",
"++@+,+@.>.%.*%..&@@#@$+@!+!'==!!^!1+@'+@@$-@@]+++@++++#+##.#.#*.*.>.>.*.>..%$%%$.$@/+=+7@@++($@@$.$...$.@.:$.:.@..%%%;%<%%<;%-;%",
"+,@+@,&$..*%.*.#&,@@@!+!+[=@^@[+^={|++.)$-+@$++{+=+!+++&#.~***#.#*.~.#..*$*>%$.$#@+++++=+@,++@:....$.$..$.$.@.$.@.%%%5;%;;%;%;-<",
"++,++@,.>%.%%%.#&@#@$@=+!'===!{=^!!{@)@-%@@@+/+@}++++++@##.#~.**.#&#.~#.#&.#.,&@>$++++++}@++(@@@.$....$...$..@....%%%%%%%%;-<%;%",
"+++@+@&$..*%*%*.@$,@@@@=+={^'|!{!!{+@$&3$&]$++=+++=+=+,+&#~.#*#.*>*~#.~~>&#.>$.$$}+}'+=+@@+@+&$.$..$..$.@.$:$.]@&%%;%4%;%;%<-;%<",
"@++++@&>..%*.%.#&$+$@@'=+_=@=]=!^!={]$$;@$$++'/=+++@+++@@&#~.~.#.#.*#*#.*>%-*#$>@+++++++}@2@+&$.$..$..$:.$..$..$&%%%%%<%<%;%%;%%",
"++7+,+@..>.%%*..#+@@d+@='='=^@[@^^@!$]$$@-+++++++=++=+@,,@~@~#*~.*>.~.#*#.>.>.>@+_+=+++@+@+@2+$..$..$..$.$:@:$@:@;%;8%;%;%-;%;%;",
"=++++@&#.%.*%>..,@$@@+!+=$[@b{!{=^!]@$$$-+@+}{=+++++@++@,@#&#.#.#.#*#*#.#~##$#$,+=++{++@7@}@++.$..$..$.$.$.$.$.@.%%%%;%<%;%)%%%%",
"+++++#@..*%.%*..@,$@@+!'_=='|^@1!+1@@{$-@++=++++++=+{+@++&#&#&>.#*.>..#.>..>.>@@/=+++++@+@+@++.$...$..$.$.$@:$@:@;%<%%<%%<%%;%;%",
"+=++@@@#..*%.%>.@+@@+@@='@[=$^!]!^+1$+]$+++++=+=++++=+++++,#&##.#.#.>*.>.>$%$.++=+[+{++@+#+#++$.$..$.$.$:$.$$$.@&;<%;%;;%-<%%%%%",
"+++++@..>.%*%..#@,@@=+^+=^+^]='1|]=]$@@+=+=++'+++++=+'+++&+,,&#.#....>.>%$.>$#(++=+++++@@+7@@(-.$.$..@.$.$@:@$@].-%;<%<%;%%)%;%%",
"+=}++@@...%.*%*.@+@+++!+'='_!]={!!]!!{!+'=+=+='@+++++=@+++(+(,#&#.#>..%.>%$.$@+++'={'++@+@+@@+.$..$:$.@$.$.$.@:@:%<%;%%<%;%%%%..",
"+++++#@#.*.%*%.#+@$@=@==+='=]|={!^|{|$1@_+'}{@}@_+'+=+++@+#+,+,(#&&#.#>.%$.$.@++=++++++@!@+#++%$&@.@.$.]$$@$]@$&.;%%4%;%%%-$$+++",
"++++++&$>.>..*..@-+$+'@={=+{!]=={!^!]!{)!'=++=+@+=+++=+=++++&#.#.#.>...$*.$%$.@+'='@{=+@+!+@@($.@.@&$@.@.@.$.@]@%%<%%%%;%;.(++++",
"++++}@,&$%*%*$*.-++===+=+=+_{|]=[!$^@^!+]@'=@++=+++=+'+@++,@#@#$#.#.>.*.$..$%$;-@+'++++!@@@+@($.&@.@.@@@.]@@.@&$;%%4%8%%%.@++++@",
"@@+++++#.>.%.%>.+@]++_{='!{+[@^@|]^!^@^|]!++='+@=+'=++=++++@@#.#.#.#.#..>.$.-%----]/'++++7@+@+.$.$&$&@&@@&@@@@@&%;%%%%%;$&(++@@@",
"@!@@+@+&..**%*..@++='+=@_+^@='|^!!{^@1@^$+1+@+=+++++=++=@++,@#.#.#.>..>...%.-.-;-)--+++@+@@+,@.@.$.@.$@.@@&@&$&@%;%;%;%.&+(@,+@,",
"$]@@@++,.$%..%>.$@++_+|{=]+^+={={==!{!]!{={{=++=+=+'=++++@+@&#$##.#.#.~.>.$.%%$%%)%3;@'+++@++@$.@.$.$.@.@@@&@&@&%4%%%%$(+(@&@,@@",
"@$$$@@2@.*.*%*..$@+=+_+=@_@'!{=$={'!^$!]=$_$+'/@=+=++'=++@+,@.#..#.*.>..*.%%$%.;$%;-%-$+{+@++.$.$.@.@.@$&$@&$.@&%%<;%%@(@@@+&@&@",
"{$]$@@+@$%.%*.>.@)/'={=+='=+=+[{==!{!{1@1+)=+=+{+'+=@+++@@++#.##.#.#..#..>...$%%;%-;%<)@++@++$$.$.:$.$.$@.@@&$&%;%%%;.@(@&#@#@,@",
"+@|$$@(,..>%*%..@@+/=+='=+{='=+={[+=!!]|]!+{$+/=+=++=++@@@#(@#&$*.#.*#.*..%.%.%-%;%;-%--{++++$.$.$@.@$@.$#.@.&$%%%;%%@(@@,@.@&&&",
"'@]$$@++...%.%*.$@+=/!+=+=@=+_{==@^{+^!@|{=|)=++{+=+{+}+@@@(,.#.#.*>.*.>.>..-..%$%-;%<;--+@++.@$..:$..$.@.@.#..%%%%%.&,@&@#@,@#@",
"++]$$$+&.*%*%*.$$+'=+[='_'$'='_@^{!!!{!]|'=@-+/!+=++=+++#@#2@.#.#.#.~>.*..>..%$%;%;%-;-%)++++$..$..@$@.@$.@&..%%%<%%$&@&#@@&@&&@",
"''$]$@++$%.%.%*.$++'=+=+=@!'+=+='=+{!'!1!@={|'+@{=+++++@@@&2&#.#*~.*..#.>.%$..%.%$;%%;-<-)++($.@.$...$@.@.@.$%%%%%%.&&,@&##@#@@@",
"++!$$$(+..*%*...@+_@_+[+[@@_{='=+[={!=@^$^@!{+_+++=++++#&#@(#.#..#*#.*.*.>..%$.-.%-;-%)-;3/0@@...@.$@.$@.@..%%%;%%%$&#&#@&@,@@#&",
"''])$@(+..%.%*..@'+'+[+=@[++=+=+='+=]=!]|]!@^++=++@++++@#.#,~.*#*..#*#.#..>.$%.%$;%-%;-<--@+@.$..$...@.@$&@%<%%%%%%&&&#&#@,@&@@@",
"/+@]$$+($.%*%%*.@@==/='=+]='+'='=+^='!{|=]|$@{++=+++},@#.@(&##..~**..#*.>.>.>.$%.-;%)%--;-)(]..@..@$.$.@.@:%;%4%%%$&#&&#.&#@@@+@",
"''!)$]+,..%..*..$++'+=+[+!@_!+_+='!+=@!1$_'[+=]$@=+++@@#.>,&&*#.#.~*#.*#.>.$.%$.-.-;-;-;-<$+&]..$..@.@:@.@.%%%%<%*.&&#&#@,&@,@@@",
"++{$$$@($.*%*%.>@'+=+'=+'='+'=+'=+^'^^@^@1+=+++@+@@++&#@.#(##.#*.*$*.#.*#*.*$..%.%%%-;-;-;-(@.$..@.$:$$.@...%%8%%.#.&&#&@@#@@@,@",
"_/!]$]@+.>%.%*..$++=++{=++=+=+=+{=+^+^]1+^@'/={++++2+#&#@#+&#.*.#.~.**#*.>.*..$..$;%%-<-%)-:$.@.$..$@.@:@...%.%%%.~#&#&@,@@@+@@@",
"+'+$]$+&&.*%*%.>$@+'+=+'={={+=+=+[+^='!^+^@|'++=++++@&#..#&#.#*.*.#*#.*.#*.>.%.%.%.-;%);-<--:@.@&$.$$].$&.....%%%.&#&@,&@,@#@@+@",
"_+{$$]@+$..%.*..$@}'++='+=+='='+!'_$!'={[@^@=++/++++#@##@2&#.#*#.*.*.~>~.*..>..$..%$%-%-)%-<@&@&@&@.@$@.$....4%%.#&,&@,@&@@+@@@+",
"+/=]$$&&&>%*.%..@@+=+'}=+{=++=+_=@!{!={=={!+'_{+=+++#&$*@(#.#.>.*#.#.*.#.#*...%.%.%.;-;-;-;-.@&+(@@@@@@$...&.%%%.@&@,&@@@@@&@@++",
"+'+]$)@+...*%*..@++'=+'='=+[+='+'_+^$|{!]='=++=+/++@#.##2&#.#.*#*.*.*#.**.*.>*.$.$%$%;-%<--<$6@&@&+({(@+&$..%%%..,+&@,@@,@@@@@++",
"+++$$).(..%*%.%.@=+++=++='={+=+==+=={|!^@=+^/=+/+++#@#&,(#.#.*#.*#.*#*.#.#*...*.%..%$%;-;-%--&@@@@@++++(+%%.%%%.@(@+@&@@@+@@@+++",
"{@{]$]$+&..*%*.&$@_'+'='+=+='=++='=+_{$^!{='=/+=++@#$#&2#.#.>.~*.*.*.#*#*.#.>.>..$%.%-%-;3;-%{&@&@@@@++(,%>.%<.&++,@+@@(@@@@@+@+",
"@@@$$;$&@%%.%%.&$+++=+=+='=@=+[/=+='=!_@!{_++[+++@#@~,(,.#.#.*.~*#.**..*.*.*...*..$%.;-;-%-;-$@&@@&@@++(+.%-.>&(+@+@@@@+@@@@@@++",
"+{@]$]$&&.*.*%%&@=+=+'='+='='=@='!+=+^@^+='=+/+++@@#(2,~#.#.#*#.*.~.#*~.#*#.#*.$*.$%$.%-;)%-<-6@@@@6@@+@&>%%$&+(+@+@@+@+@@@@{+@+",
"@@@$$.]&@.%.%...@++'=+=+=+=++={}+!'!'=@1+=++++}+@(,(#~..~#.*.**~*.**.*>.*.~.*.>..>.%.-;%-;-%--+@&@@@@&@&#.>.&,&+@+@@@@+@@&@@++++",
"+@{@)$$&..*%*%..{++=+{='='=^+!@='!+=]={!{='=++++,(#&&#~#.*##.#*.#.#*.*.~.#*.#.**...$%.$;%)%);-:@@@&@@@&@&..,@(@&+@@@@++@@@@@@+++",
"+'@@$)$&@..%%%.#++_+=+=+!+=@[+=@={!_+={!@++++/+,@&.#*.*~#..~.#****.~.#*.*..*.*#.>>.%$%%$%)%----+6@@@&@@.##&~@#@+@@@+@+@@]@@++{++",
"+++{$-)$..%*.%.@++++'+{='='@={=$=+!'^$_+^+_+++@$&#&~&~*.~#*#*.~.~.*.*.#*.#*#.*.*..>..$;%;-;;-;-+@&@@&$&#&&#&#&@@@@+@+@@.@@@+++++",
"++'@)-.$&$.%%%%&+'=+==+=+=={=@={@[@='={!$@+++,@,.&.#*&~~.*&.#*#*#*~.*.*.*..*>.*>.>.%.%$;%)%--;-@&@&@@.@.#&#.#&@@+@+@@@@@@@++++!@",
"++++-))$...>.%.@++_++{={'=@_+=+={=]+_@[/^@+@+@#@#.~.~*.~*#*#*.~.*.*.**.*.#*.*#.*.>.$..$;$%);--)$6@&@&#.@*&#.#@,@+@@+@@$@@@++++@@"};
