#define hopper_width 128
#define hopper_height 128
static char hopper_bits[] = {
  0xFF, 0xFF, 0xFF, 0x1F, 0xF0, 0x3D, 0x80, 0x96, 0xDA, 0xB6, 0xD6, 0x2A, 
  0xA9, 0x6D, 0x25, 0x29, 0xFF, 0xFF, 0xFF, 0xBF, 0xFE, 0x7D, 0xC0, 0xFB, 
  0x69, 0x69, 0xA9, 0xD5, 0x96, 0x96, 0x5E, 0x9A, 0xFF, 0xFF, 0xFF, 0x9F, 
  0xFE, 0xFD, 0x80, 0xFF, 0x97, 0xB6, 0x5A, 0x6A, 0x5D, 0x6D, 0x5A, 0x62, 
  0xFF, 0xFF, 0xFF, 0xFF, 0xFE, 0xFD, 0xC1, 0xCF, 0x5F, 0x89, 0xA5, 0xD5, 
  0xAA, 0x92, 0xA5, 0x59, 0xFF, 0xFF, 0xFF, 0xFF, 0xFE, 0xFD, 0xF8, 0x00, 
  0xB8, 0x59, 0xAA, 0x56, 0xDA, 0x5A, 0x56, 0x49, 0xFF, 0xFF, 0xFF, 0xFF, 
  0xFE, 0xFC, 0xF9, 0x00, 0xF0, 0xA6, 0x55, 0xA9, 0x65, 0xA5, 0xA9, 0xA2, 
  0xFF, 0xFF, 0xFF, 0xFF, 0xFE, 0xFD, 0x71, 0x00, 0x60, 0x70, 0xAA, 0x54, 
  0xAA, 0x5A, 0x54, 0x69, 0xFF, 0xFF, 0xFF, 0xFF, 0xFE, 0xFC, 0x38, 0x00, 
  0xE0, 0x80, 0x55, 0xAB, 0x55, 0x75, 0xAB, 0x56, 0xFF, 0xFF, 0xFF, 0xFF, 
  0xFE, 0x1D, 0x70, 0x00, 0xF0, 0x00, 0xAE, 0xAA, 0xAA, 0xA6, 0x95, 0x55, 
  0xFB, 0xFF, 0xFF, 0xFF, 0xFE, 0x1D, 0xF0, 0x00, 0xF0, 0x00, 0x50, 0x55, 
  0x55, 0x59, 0x6A, 0xAA, 0xF3, 0xFF, 0xFF, 0xFF, 0xFE, 0x04, 0xF0, 0x00, 
  0xF0, 0x00, 0xA4, 0xAA, 0xA9, 0xA5, 0x95, 0x55, 0x21, 0xFF, 0xFF, 0xFF, 
  0xFE, 0x01, 0xF8, 0x00, 0xF0, 0x00, 0x50, 0x55, 0x56, 0x5A, 0x6A, 0xAA, 
  0x83, 0x9F, 0xFF, 0xFF, 0xFE, 0x00, 0xFC, 0x00, 0xF0, 0x01, 0x50, 0xD5, 
  0x95, 0x95, 0xA5, 0x5A, 0x83, 0x9F, 0xFF, 0xFF, 0xFE, 0x81, 0xFF, 0x00, 
  0xE0, 0x0B, 0xA0, 0xAA, 0x7A, 0x6A, 0x5A, 0x65, 0x80, 0x1F, 0xF0, 0xFF, 
  0xFE, 0xF0, 0xFF, 0x00, 0xF0, 0x3F, 0x50, 0x55, 0xA5, 0xB5, 0xA5, 0xAA, 
  0x00, 0x1F, 0xF8, 0xFD, 0xFE, 0xF0, 0xF7, 0x00, 0xF0, 0x6D, 0xA0, 0xAA, 
  0x5A, 0x6A, 0x5A, 0x55, 0x83, 0x0F, 0xF8, 0xC9, 0xFE, 0x79, 0x00, 0xF8, 
  0x02, 0xC0, 0x81, 0x55, 0xAD, 0xD5, 0xA5, 0xA6, 0xE3, 0x03, 0xFC, 0xC0, 
  0xFE, 0xFF, 0x04, 0xF0, 0x00, 0x80, 0x63, 0xAA, 0x52, 0x2A, 0x5A, 0x58, 
  0xE7, 0x03, 0xFC, 0xE1, 0xFE, 0xFF, 0x2F, 0xFC, 0x03, 0x0C, 0xFE, 0x55, 
  0xA9, 0x55, 0x66, 0x15, 0xF3, 0x0F, 0x7C, 0xF0, 0xFE, 0xFF, 0xFF, 0xFD, 
  0xEF, 0x38, 0xFF, 0xAA, 0x56, 0xAA, 0x99, 0xAA, 0xF7, 0x1F, 0x78, 0xF0, 
  0xFC, 0xFF, 0xFF, 0xFF, 0xFF, 0xF1, 0xFF, 0x55, 0xAA, 0x5B, 0x66, 0xA4, 
  0xFF, 0x9F, 0xFD, 0xF0, 0xFE, 0xFF, 0xFF, 0xFF, 0xFF, 0xFF, 0xFF, 0xAB, 
  0x65, 0xA4, 0x99, 0x1B, 0xFF, 0xDF, 0xFF, 0xE0, 0xFE, 0xFF, 0xFF, 0xFF, 
  0xFF, 0xFF, 0xFF, 0x69, 0x51, 0x5A, 0x24, 0x62, 0xFF, 0xDF, 0xFF, 0xEC, 
  0xFE, 0xFF, 0xFF, 0xFF, 0xFF, 0xFF, 0xFF, 0x95, 0xAA, 0x24, 0x59, 0x55, 
  0xFF, 0xFF, 0xFF, 0xFC, 0xFC, 0xFF, 0xFF, 0xFF, 0xFF, 0xFF, 0xFF, 0x25, 
  0x49, 0xAD, 0x55, 0x2A, 0xFF, 0xFF, 0xFF, 0xFC, 0xFD, 0xFF, 0xFF, 0xFF, 
  0xFF, 0xFF, 0xFF, 0x9B, 0xA5, 0x52, 0x2A, 0x94, 0xFF, 0xFF, 0xFF, 0xFF, 
  0xFD, 0xFF, 0xFF, 0xFF, 0xFF, 0xFF, 0xFF, 0x67, 0x64, 0xC1, 0x92, 0x6D, 
  0xFF, 0xFF, 0xFF, 0xFF, 0xFE, 0xFF, 0xFF, 0xFF, 0xFF, 0xFF, 0xFF, 0x95, 
  0x49, 0x2C, 0x55, 0x92, 0xFF, 0xFF, 0xFF, 0xFF, 0xFC, 0xFF, 0xFF, 0xFF, 
  0x7F, 0xFF, 0xFF, 0x15, 0xB4, 0x62, 0x44, 0x49, 0xFF, 0xFF, 0xFF, 0xFF, 
  0xFD, 0xFF, 0x51, 0x30, 0x03, 0xE0, 0xFF, 0x53, 0x03, 0x89, 0x96, 0x92, 
  0xFF, 0xFF, 0xFF, 0xFF, 0xFD, 0x7F, 0x00, 0x00, 0x00, 0xC0, 0xFF, 0xCD, 
  0x68, 0x19, 0x68, 0x99, 0xFF, 0xFF, 0xFF, 0xFF, 0xFE, 0x1F, 0x00, 0x00, 
  0x00, 0x00, 0xFF, 0x13, 0x4A, 0x64, 0x23, 0x49, 0xFF, 0xFF, 0xFF, 0xFF, 
  0xFF, 0x0F, 0x00, 0x00, 0x00, 0x00, 0xFC, 0x47, 0x8A, 0xA4, 0xD8, 0x30, 
  0xFE, 0xFF, 0xFF, 0xFF, 0xFC, 0x07, 0x00, 0x00, 0x00, 0x00, 0xF8, 0x39, 
  0x29, 0x49, 0x06, 0x86, 0xCC, 0xFF, 0xFF, 0xFF, 0xFC, 0x03, 0x00, 0x00, 
  0x80, 0x00, 0xF2, 0x81, 0x50, 0x31, 0xA2, 0x8C, 0xE4, 0xFF, 0xFF, 0xFF, 
  0xFF, 0x0A, 0x08, 0x00, 0x00, 0x00, 0xF0, 0xA7, 0x46, 0x8C, 0x28, 0x31, 
  0xC0, 0xFC, 0xFF, 0xFF, 0xFC, 0x03, 0x10, 0x00, 0xE0, 0x01, 0xE0, 0x19, 
  0x41, 0x61, 0x66, 0x05, 0xE0, 0xB8, 0xFF, 0xFF, 0x7E, 0x0C, 0x44, 0x00, 
  0x40, 0xBF, 0xEF, 0x41, 0x5C, 0x04, 0x00, 0xA8, 0xF0, 0xC1, 0xFF, 0xFF, 
  0xFE, 0x21, 0x9E, 0x00, 0xE0, 0xFF, 0xED, 0xA5, 0x12, 0x92, 0xDB, 0xA2, 
  0xE0, 0xC0, 0xFF, 0xFF, 0x7D, 0xFA, 0xFF, 0x00, 0x70, 0x00, 0xFF, 0x42, 
  0x84, 0x0C, 0x00, 0x08, 0xC0, 0xC0, 0xFF, 0xFC, 0x7D, 0xFF, 0x90, 0x07, 
  0xC0, 0x1F, 0xDB, 0x0A, 0x24, 0xC8, 0x68, 0x09, 0xCC, 0xC0, 0x7F, 0xFE, 
  0x1E, 0x7F, 0x3E, 0x00, 0xD4, 0xFF, 0x3E, 0x60, 0x81, 0x21, 0x02, 0xA0, 
  0xFC, 0xE0, 0x7F, 0xFF, 0xCE, 0x9F, 0xFF, 0x05, 0xFA, 0xFF, 0xBF, 0x04, 
  0x24, 0x0A, 0x61, 0x1B, 0xFC, 0xC0, 0xBF, 0xFF, 0xAC, 0x7D, 0xFF, 0x03, 
  0x40, 0x1F, 0x80, 0x91, 0xC2, 0xA0, 0x05, 0x80, 0xFF, 0x8D, 0x7F, 0xFF, 
  0xEF, 0xF5, 0xDF, 0x00, 0x00, 0x94, 0x42, 0x81, 0x01, 0x10, 0x92, 0x85, 
  0xFF, 0xFD, 0xFF, 0xFE, 0x2C, 0x62, 0x03, 0x00, 0x20, 0x00, 0x10, 0x2B, 
  0x24, 0x82, 0x00, 0x20, 0xFF, 0xFD, 0xFF, 0xFF, 0xBD, 0x55, 0x01, 0x00, 
  0x40, 0x00, 0x08, 0x19, 0x81, 0x58, 0x54, 0x14, 0xFF, 0xFF, 0xFF, 0xFF, 
  0x3C, 0x82, 0x05, 0x08, 0x00, 0x24, 0x20, 0x81, 0x24, 0x02, 0x02, 0x82, 
  0xFF, 0xFF, 0xFF, 0xFF, 0x3D, 0x82, 0x01, 0x00, 0x00, 0x00, 0x69, 0x22, 
  0x90, 0xA0, 0x49, 0x06, 0xFF, 0xFF, 0xFF, 0xFF, 0x2D, 0x26, 0x00, 0x00, 
  0x00, 0x00, 0x20, 0x20, 0x0A, 0x02, 0x20, 0xA0, 0xFF, 0xFF, 0xFF, 0xFF, 
  0x04, 0x81, 0x01, 0x00, 0x10, 0x00, 0xA0, 0x04, 0x02, 0x0A, 0x09, 0x00, 
  0xFF, 0xFF, 0xFF, 0xFF, 0x81, 0x19, 0x02, 0x02, 0x00, 0x00, 0x02, 0x42, 
  0x50, 0xA0, 0x20, 0x95, 0xFF, 0xFF, 0xFF, 0xFF, 0x00, 0x60, 0x00, 0x01, 
  0x80, 0x02, 0x42, 0x52, 0x40, 0x20, 0xA0, 0x20, 0xFF, 0xFF, 0xFF, 0x7F, 
  0x00, 0x00, 0x8C, 0x01, 0x40, 0x00, 0x00, 0x00, 0x06, 0x06, 0x09, 0x05, 
  0xFF, 0xFF, 0xFF, 0x3F, 0x00, 0x50, 0x00, 0x00, 0x40, 0x00, 0x02, 0x18, 
  0xA0, 0x90, 0x84, 0x64, 0xFF, 0xFF, 0xFF, 0x3F, 0x00, 0x10, 0x81, 0x07, 
  0xD0, 0x00, 0x48, 0x82, 0x02, 0x02, 0x20, 0x00, 0xFF, 0xFF, 0xFF, 0x0F, 
  0x00, 0x04, 0xC0, 0x7E, 0x9F, 0x01, 0x10, 0x04, 0x00, 0x00, 0x24, 0x25, 
  0xFF, 0xFF, 0xFF, 0x0F, 0x00, 0x60, 0x48, 0xC0, 0xC1, 0x13, 0x00, 0x41, 
  0x9A, 0x99, 0x81, 0x00, 0xFF, 0xFF, 0xFF, 0x03, 0x40, 0x40, 0x60, 0x00, 
  0x84, 0x0B, 0x00, 0x50, 0x02, 0x40, 0x24, 0x90, 0xFF, 0xFF, 0xFF, 0x01, 
  0x00, 0x00, 0x32, 0x00, 0x00, 0x57, 0x00, 0x04, 0x40, 0x02, 0x01, 0x05, 
  0xF8, 0xFF, 0xFF, 0x01, 0x40, 0x00, 0x38, 0x00, 0x00, 0x0E, 0x10, 0x05, 
  0x99, 0x0A, 0xA4, 0x0A, 0xFC, 0xFF, 0x7F, 0x00, 0x80, 0x30, 0x10, 0x00, 
  0x00, 0x84, 0x04, 0x60, 0x00, 0x50, 0x00, 0x60, 0xFC, 0xFF, 0xFF, 0x00, 
  0x00, 0x3A, 0x08, 0x00, 0x00, 0x04, 0x8E, 0x06, 0x00, 0x41, 0x56, 0x00, 
  0xF8, 0xFE, 0xFF, 0x01, 0x80, 0x79, 0xA0, 0x7F, 0xFF, 0x01, 0x06, 0x20, 
  0x51, 0x08, 0x00, 0x2A, 0xF8, 0xFF, 0xFF, 0x00, 0xE0, 0x3F, 0xE0, 0xAF, 
  0x00, 0x00, 0x06, 0x11, 0x91, 0x52, 0x02, 0x92, 0xF8, 0xFF, 0xFF, 0x00, 
  0x00, 0x7F, 0x00, 0x00, 0x80, 0x02, 0x02, 0x08, 0x00, 0x00, 0x50, 0x00, 
  0x7E, 0xFF, 0xFF, 0x01, 0x40, 0x7F, 0x00, 0x00, 0x10, 0x80, 0x86, 0x00, 
  0x08, 0x09, 0x06, 0x08, 0xFF, 0xFF, 0xFF, 0x01, 0x80, 0xFC, 0x20, 0x51, 
  0x0D, 0x20, 0x23, 0x94, 0x91, 0x50, 0x20, 0x92, 0xFF, 0xFE, 0xFF, 0x03, 
  0x20, 0x70, 0x05, 0x88, 0x01, 0x80, 0x21, 0x06, 0x84, 0x44, 0x80, 0x25, 
  0xFF, 0xFF, 0xFF, 0x03, 0x40, 0xEA, 0x90, 0x00, 0x20, 0xA4, 0x05, 0x00, 
  0x00, 0x10, 0x26, 0x00, 0xFF, 0xFF, 0xFF, 0x07, 0x40, 0xD8, 0x08, 0x00, 
  0x00, 0xA0, 0x81, 0x92, 0x01, 0x01, 0x84, 0x40, 0xFF, 0xFF, 0xFF, 0x0F, 
  0x20, 0xC3, 0x42, 0x00, 0x00, 0x0A, 0x24, 0x00, 0x44, 0x48, 0x20, 0x25, 
  0xFF, 0xFF, 0xFF, 0x0F, 0x20, 0xD5, 0x05, 0x02, 0x00, 0x46, 0x12, 0x40, 
  0x02, 0x22, 0x44, 0x00, 0xFF, 0xFF, 0xFF, 0x1F, 0x90, 0x50, 0x90, 0x00, 
  0x00, 0x9A, 0x40, 0x02, 0x40, 0x00, 0x10, 0x64, 0xFF, 0xFF, 0xFF, 0x1F, 
  0x98, 0x62, 0x7C, 0x10, 0x11, 0xDF, 0x07, 0x14, 0x28, 0x08, 0x01, 0x05, 
  0xFF, 0xFF, 0xFF, 0x1F, 0x20, 0x74, 0xF8, 0xE5, 0xEA, 0x87, 0x23, 0x01, 
  0x81, 0x11, 0x48, 0x20, 0xFF, 0xFF, 0xFF, 0x1F, 0x50, 0x38, 0xF2, 0xFF, 
  0xFF, 0xC7, 0x8F, 0x80, 0x00, 0x84, 0x40, 0x04, 0xFF, 0xFF, 0xFF, 0xBF, 
  0x68, 0x3D, 0xE9, 0xFF, 0x7F, 0xC1, 0x1F, 0x28, 0x14, 0x10, 0x06, 0x50, 
  0xFF, 0xFF, 0xFF, 0x3F, 0x90, 0x3F, 0x81, 0xFE, 0x5F, 0x89, 0x3F, 0x82, 
  0x00, 0x02, 0xA2, 0x01, 0xFF, 0xFF, 0xFF, 0xBF, 0xB0, 0x3F, 0xB1, 0xFF, 
  0xBF, 0xC1, 0xFF, 0x00, 0x82, 0x80, 0x00, 0x24, 0xFF, 0xFB, 0xFF, 0x7F, 
  0xF8, 0x3F, 0xA9, 0xFC, 0x5F, 0x81, 0xFF, 0x0F, 0x08, 0x00, 0x04, 0x48, 
  0xFF, 0xF0, 0xFF, 0xBF, 0xFC, 0x3F, 0x41, 0xEB, 0xE7, 0xC0, 0xFF, 0x1F, 
  0x40, 0x24, 0x40, 0x01, 0xFF, 0xE0, 0xFF, 0xFF, 0xFF, 0x3F, 0xB3, 0x7D, 
  0xAD, 0x80, 0xFF, 0xFF, 0x01, 0x00, 0xA0, 0x90, 0x7F, 0xC0, 0xFF, 0xFF, 
  0xFF, 0x3F, 0x43, 0xFA, 0x27, 0xC0, 0xFF, 0xFF, 0x93, 0x51, 0x04, 0x04, 
  0x7F, 0x80, 0xFF, 0xFF, 0xFF, 0x3F, 0x60, 0x6D, 0x56, 0xC0, 0xFF, 0xFF, 
  0x1F, 0x20, 0x0A, 0x40, 0x7F, 0x80, 0xFF, 0xFF, 0xFF, 0x3F, 0x84, 0x6A, 
  0x6D, 0xC0, 0xFF, 0xFF, 0x3F, 0x00, 0x00, 0x02, 0x7F, 0x00, 0xFF, 0xFF, 
  0xFF, 0x3F, 0x2C, 0xBA, 0x22, 0xC0, 0xFF, 0xFF, 0xFF, 0x87, 0x04, 0x98, 
  0x7F, 0x80, 0xFF, 0xFF, 0xFF, 0x3F, 0x48, 0x66, 0xD5, 0xC0, 0xFF, 0xFF, 
  0xFF, 0x3F, 0x90, 0x02, 0x7F, 0xC0, 0xFF, 0xFF, 0xFF, 0x7F, 0x80, 0xA6, 
  0x63, 0xE0, 0xFF, 0xFF, 0xFF, 0xFF, 0x08, 0x24, 0x7F, 0xF8, 0xFF, 0xFF, 
  0xFF, 0x7F, 0x90, 0x78, 0x3A, 0xE0, 0xFF, 0xFF, 0xFF, 0xFF, 0x27, 0x00, 
  0x7F, 0xFC, 0xFF, 0xFF, 0xFF, 0x7F, 0x00, 0xF9, 0x06, 0xF0, 0xFF, 0xFF, 
  0xFF, 0xFF, 0x8F, 0x61, 0x7F, 0xFC, 0xFF, 0xFF, 0xFF, 0x7F, 0x00, 0xA4, 
  0x0B, 0xF0, 0xFF, 0xFF, 0xFF, 0xFF, 0x3F, 0x04, 0x7F, 0xFE, 0xFF, 0xFF, 
  0xFF, 0xFF, 0x00, 0xD0, 0x01, 0xF0, 0xFF, 0xFF, 0xFF, 0xFF, 0x7F, 0x08, 
  0x7F, 0xFF, 0xFF, 0xFF, 0xFF, 0xFF, 0x00, 0x01, 0x00, 0xF8, 0xFF, 0xFF, 
  0xFF, 0xFF, 0xFF, 0x61, 0x7F, 0xFF, 0xFF, 0xFF, 0xFF, 0xFF, 0x00, 0x88, 
  0x01, 0xF8, 0xFF, 0xFF, 0xFF, 0xFF, 0xFF, 0x00, 0xFE, 0xFF, 0xFF, 0xFF, 
  0xFF, 0xFF, 0x00, 0x00, 0x00, 0xF8, 0xFF, 0xFF, 0xFF, 0xFF, 0xFF, 0x48, 
  0xFC, 0xFF, 0xFF, 0xFF, 0xFF, 0xFF, 0x01, 0x00, 0x07, 0xFC, 0xFF, 0xFF, 
  0xFF, 0xFF, 0xFF, 0x01, 0xFC, 0xFF, 0xFF, 0xFF, 0xFF, 0xFF, 0x01, 0xD0, 
  0x0F, 0xFE, 0xFF, 0xFF, 0xFF, 0xFF, 0xFF, 0x69, 0xF8, 0xFF, 0xFF, 0xFF, 
  0xFF, 0xFF, 0x03, 0xFF, 0x0F, 0xFC, 0xFF, 0xFF, 0xFF, 0xFF, 0xFF, 0x05, 
  0xF0, 0xFF, 0xFF, 0xFF, 0xFF, 0xFF, 0x03, 0xFF, 0x3F, 0xFE, 0xFF, 0xFF, 
  0xFF, 0xFF, 0xFF, 0x21, 0xF0, 0xFF, 0xFF, 0xFF, 0xFF, 0xFF, 0x83, 0xFF, 
  0x7F, 0xFF, 0xFF, 0xFF, 0xFF, 0xFF, 0xFF, 0x03, 0xF0, 0xFF, 0xFF, 0xFF, 
  0xFF, 0xFF, 0xC3, 0xFF, 0xFF, 0xFF, 0xFF, 0xFF, 0xFF, 0xFF, 0xFF, 0x6B, 
  0xF0, 0xFF, 0xFF, 0xFF, 0xFF, 0xFF, 0xF7, 0xFF, 0xFF, 0xFF, 0xFF, 0xFF, 
  0xFF, 0xFF, 0xFF, 0x23, 0xE0, 0xFF, 0xFF, 0xFF, 0xFF, 0xFF, 0xFF, 0xFF, 
  0xFF, 0xFF, 0xFF, 0xFF, 0xFF, 0xFF, 0xFF, 0x07, 0xE0, 0xFF, 0xFF, 0xFF, 
  0xFF, 0xFF, 0xFF, 0xEF, 0xFB, 0xFF, 0xFF, 0xFF, 0xFF, 0xFF, 0xFF, 0x27, 
  0xF0, 0xFF, 0xFF, 0xFF, 0xFF, 0xFF, 0xFF, 0x0F, 0xF0, 0xFF, 0xFF, 0xFF, 
  0xFF, 0xFF, 0xFF, 0x0F, 0xE0, 0xFF, 0xFF, 0xFF, 0xFF, 0xFF, 0xFF, 0x07, 
  0xF0, 0xFF, 0xFF, 0xFF, 0xFF, 0xFF, 0xFF, 0x0F, 0xF0, 0xFF, 0xFF, 0xFF, 
  0xFF, 0xFF, 0xFF, 0x03, 0xF0, 0xFF, 0xFF, 0xFF, 0xFF, 0xFF, 0xFF, 0x8F, 
  0xE0, 0xFF, 0xFF, 0xFF, 0xFF, 0xFF, 0xFF, 0x03, 0xF0, 0xFF, 0xFF, 0xFF, 
  0xFF, 0xFF, 0xFF, 0x1F, 0xF0, 0xFF, 0xFF, 0xFF, 0xFF, 0xFF, 0xFF, 0x01, 
  0xF0, 0xFF, 0xFF, 0xFF, 0xFF, 0xFF, 0xFF, 0x8F, 0xF0, 0xFF, 0xFF, 0xFF, 
  0xFF, 0xFF, 0xFF, 0x00, 0xF8, 0xFF, 0xFF, 0xFF, 0xFF, 0xFF, 0xFF, 0x2F, 
  0xF0, 0xFF, 0xFF, 0xFF, 0xFF, 0xFF, 0xFF, 0x00, 0xF8, 0xFF, 0xFF, 0xFF, 
  0xFF, 0xFF, 0xFF, 0x1F, 0xF0, 0xFF, 0xFF, 0xFF, 0xFF, 0xFF, 0x3F, 0x00, 
  0xF8, 0xFF, 0xFF, 0xFF, 0xFF, 0xFF, 0xFF, 0x1F, 0xF0, 0xFF, 0xFF, 0xFF, 
  0xFF, 0xFF, 0x3F, 0x00, 0xFC, 0xFF, 0xFF, 0xFF, 0xFF, 0xFF, 0xFF, 0x9F, 
  0xF8, 0xFF, 0x07, 0xFF, 0xFF, 0xFF, 0x7F, 0x00, 0xFF, 0xFF, 0xFF, 0xFF, 
  0xFF, 0xFF, 0xFF, 0x1F, 0xF0, 0xFF, 0x03, 0x00, 0xF1, 0xFF, 0x7F, 0x80, 
  0xFF, 0xFF, 0xFF, 0xFF, 0xFF, 0xFF, 0xFF, 0x1F, 0xF0, 0xFF, 0x03, 0x00, 
  0xF0, 0xFF, 0xFF, 0x00, 0xFF, 0xFF, 0x7F, 0x6F, 0xFD, 0xFF, 0xFF, 0x1F, 
  0xF8, 0xFF, 0x03, 0x00, 0xE0, 0xFF, 0xFF, 0x80, 0xFF, 0xFF, 0x7F, 0x7F, 
  0xFD, 0xFF, 0xFF, 0x7F, 0xF0, 0xFF, 0x03, 0x00, 0xC0, 0xFF, 0xFF, 0x90, 
  0xFF, 0xFF, 0x5F, 0xA2, 0xF4, 0xFF, 0xFF, 0x3F, 0xF8, 0xFF, 0x03, 0x00, 
  0x80, 0xFF, 0xFF, 0x80, 0xFF, 0xFF, 0x0F, 0xAA, 0x42, 0xF1, 0xFF, 0x3F, 
  0xF8, 0xFF, 0xAF, 0x00, 0x80, 0xFF, 0xFF, 0xD9, 0xFF, 0xFF, 0x0F, 0x02, 
  0x64, 0xF1, 0xFF, 0x3F, 0xF8, 0xFF, 0xFF, 0x3F, 0xC2, 0xFF, 0xFF, 0xDB, 
  0xFF, 0xFF, 0xCB, 0xD1, 0xDA, 0xF7, 0xFF, 0x7F, 0xF8, 0xFF, 0xFF, 0xFF, 
  0xFF, 0xFF, 0xFF, 0xFF, 0xFF, 0xFF, 0x71, 0x44, 0xFC, 0xF6, 0xFF, 0x3F, 
  0xFC, 0xFF, 0xFF, 0xFF, 0xFF, 0xFF, 0xFF, 0xFF, 0xFF, 0xFF, 0xB0, 0xC0, 
  0xA8, 0xFF, 0xFF, 0x3F, 0xFC, 0xFF, 0xFF, 0xFF, 0xFF, 0xFF, 0xFF, 0xFF, 
  0xFF, 0xFF, 0xFF, 0xFF, 0xFF, 0xFF, 0xFF, 0xBF, 0xFC, 0xFF, 0xFF, 0xFF, 
  0xFF, 0xFF, 0xFF, 0xFF, 0xFF, 0xFF, 0xFF, 0xFF, 0xFF, 0xFF, 0xFF, 0x3F, 
  0xFC, 0xFF, 0xFF, 0xFF, 0xFF, 0xFF, 0xFF, 0xFF, 0xFF, 0xFF, 0xFF, 0xFF, 
  0xFF, 0xFF, 0xFF, 0x7F, 0xFC, 0xFF, 0xFF, 0xFF, 0xFF, 0xFF, 0xFF, 0xFF, 
  0xFF, 0xFF, 0xFF, 0xFF, 0xFF, 0xFF, 0xFF, 0x7F, };
